# xmcd
#
# Track frame offsets:
#	150
#	12522
#	24110
#	37572
#	48196
#	60975
#	80886
#	90332
#	101430
#	112941
#	123191
#	135368
#	152677
#	170014
#	186211
#
# Disc length: 2716 seconds
#
# Revision: 0
# Processed by: cddbd v1.5.2PL0 Copyright (c) Steve Scherf et al.
# Submitted via: EasyCDDAExtractor 16.1.0.1
#
DISCID=a30a9a0f
DTITLE=Pevná vůle
DYEAR=2007
DGENRE=Country
TTITLE0=Náš svět
TTITLE1=Tvůj dopis
TTITLE2=Osudová
TTITLE3=Loďka
TTITLE4=Dědečkovy hodiny
TTITLE5=Ptákům křídla nevezmou
TTITLE6=Nutrie
TTITLE7=Ikarové
TTITLE8=Jistota
TTITLE9=Velkej den
TTITLE10=Kříž z plastiku
TTITLE11=Slamák
TTITLE12=Marta
TTITLE13=Venkovanka
TTITLE14=Černej Boby
EXTD=
EXTT0=
EXTT1=
EXTT2=
EXTT3=
EXTT4=
EXTT5=
EXTT6=
EXTT7=
EXTT8=
EXTT9=
EXTT10=
EXTT11=
EXTT12=
EXTT13=
EXTT14=
PLAYORDER=
